<svg width="280" height="281" viewBox="0 0 280 281" fill="none" xmlns="http://www.w3.org/2000/svg">
<path fill-rule="evenodd" clip-rule="evenodd" d="M265.249 203.489C266.41 201.171 267.509 198.816 268.543 196.427L84.4401 12.3235C82.0506 13.3578 79.6957 14.4566 77.3774 15.618L265.249 203.489ZM76.4382 16.093C73.6555 17.5134 70.9265 19.0242 68.2553 20.6214L260.245 212.611C261.842 209.94 263.353 207.211 264.774 204.428L76.4382 16.093ZM272.243 186.941C273.145 184.35 273.974 181.724 274.726 179.067L101.8 6.14074C99.1422 6.89281 96.5168 7.72139 93.926 8.62396L272.243 186.941ZM92.8806 8.99282C90.3631 9.89246 87.8788 10.8621 85.4302 11.8995L268.967 195.436C270.004 192.988 270.974 190.504 271.874 187.986L92.8806 8.99282ZM275.034 177.961C275.962 174.575 276.766 171.139 277.441 167.656L113.211 3.42595C109.728 4.10083 106.291 4.90479 102.906 5.83265L275.034 177.961ZM259.713 213.494L67.373 21.1534C64.7533 22.7461 62.1901 24.4224 59.6869 26.1786L254.688 221.18C256.444 218.677 258.121 216.113 259.713 213.494ZM254.102 222.008L58.8584 26.7643C56.3935 28.5203 53.9879 30.3543 51.6453 32.2625L248.604 229.221C250.512 226.879 252.346 224.473 254.102 222.008ZM247.967 229.998L50.8684 32.8999C48.5531 34.8135 46.3003 36.8002 44.1136 38.8564L242.01 236.753C244.066 234.566 246.053 232.314 247.967 229.998ZM241.322 237.479L43.3873 39.5443C41.2188 41.6126 39.1166 43.7499 37.0842 45.9525L234.914 243.782C237.117 241.75 239.254 239.648 241.322 237.479ZM214.085 259.681C211.459 261.321 208.775 262.877 206.037 264.345L16.5218 74.8295C17.9892 72.0913 19.5451 69.4075 21.1856 66.782L214.085 259.681ZM214.952 259.134L21.7322 65.9144C23.0672 63.8122 24.4568 61.7481 25.8988 59.7239L221.143 254.968C219.119 256.41 217.054 257.799 214.952 259.134ZM221.966 254.377L26.4898 58.9007C27.9419 56.8931 29.4461 54.9256 31.0002 53.0002L227.866 249.866C225.941 251.421 223.973 252.925 221.966 254.377ZM228.646 249.232L31.6344 52.2201C33.178 50.3353 34.7699 48.4915 36.408 46.6906L234.176 244.459C232.375 246.097 230.531 247.689 228.646 249.232ZM164.006 278.816C167.548 278.204 171.043 277.46 174.488 276.587L4.27977 106.378C3.4071 109.823 2.66214 113.319 2.05022 116.86L164.006 278.816ZM141.096 280.862C140.731 280.865 140.366 280.867 140.001 280.867C136.781 280.867 133.586 280.758 130.42 280.544L0.322654 150.446C0.108708 147.281 0 144.086 0 140.866C0 140.501 0.00139965 140.136 0.00419389 139.771L141.096 280.862ZM0.434067 151.972L128.895 280.433C123.938 280.043 119.053 279.396 114.255 278.504L2.36217 166.612C1.47027 161.813 0.823086 156.929 0.434067 151.972ZM142.492 280.845L0.0217296 138.374C0.0795043 135.064 0.252169 131.782 0.535906 128.531L152.335 280.331C149.085 280.614 145.803 280.787 142.492 280.845ZM153.63 280.212L0.654994 127.236C0.953105 124.151 1.35138 121.094 1.84652 118.071L162.796 279.02C159.772 279.515 156.716 279.914 153.63 280.212ZM112.504 278.167C106.577 276.987 100.786 275.433 95.1549 273.53L7.33675 185.712C5.43394 180.081 3.87958 174.289 2.69933 168.363L112.504 278.167ZM69.1275 261.628C76.6588 266.057 84.6411 269.803 92.9887 272.778L8.08873 187.878C11.064 196.226 14.8091 204.208 19.2387 211.739L69.1275 261.628ZM65.5135 259.428L21.4384 215.353C32.6366 233.14 47.7266 248.23 65.5135 259.428ZM4.56961 105.254L175.613 276.297C178.916 275.431 182.173 274.447 185.376 273.349L7.51713 95.4902C6.4201 98.694 5.43601 101.95 4.56961 105.254ZM7.88137 94.4402L186.426 272.985C189.523 271.897 192.569 270.704 195.561 269.409L11.4581 85.3055C10.163 88.2978 8.96929 91.3441 7.88137 94.4402ZM11.8884 84.3217L196.545 268.978C199.454 267.692 202.312 266.31 205.113 264.835L16.0312 75.7532C14.5567 78.5546 13.1745 81.4121 11.8884 84.3217ZM279.261 155.351C278.875 159.102 278.342 162.809 277.666 166.467L114.4 3.20086C118.057 2.525 121.765 1.9913 125.516 1.60571L279.261 155.351ZM276.254 108.552C275.07 103.544 273.618 98.639 271.912 93.8543L187.012 8.95423C182.228 7.24889 177.323 5.79648 172.314 4.6131L276.254 108.552ZM170.48 4.19275C165.502 3.08764 160.425 2.2475 155.263 1.6879L279.179 125.603C278.619 120.442 277.779 115.365 276.674 110.387L170.48 4.19275ZM279.341 127.179C279.768 131.58 279.991 136.04 280.001 140.551L140.316 0.865845C144.826 0.875786 149.287 1.09902 153.687 1.526L279.341 127.179ZM126.804 1.47933C130.791 1.10651 134.828 0.900932 138.905 0.869691L279.997 141.961C279.966 146.039 279.76 150.075 279.387 154.063L126.804 1.47933ZM212.044 20.8C231.714 32.628 248.239 49.1529 260.067 68.823L212.044 20.8ZM208.657 18.8277C202.463 15.3355 195.976 12.3013 189.243 9.77093L271.096 91.6233C268.565 84.8902 265.531 78.4036 262.039 72.2096L208.657 18.8277Z" fill="url(#paint0_linear_92_173)" fill-opacity="0.6"/>
<defs>
<linearGradient id="paint0_linear_92_173" x1="452.148" y1="-284.925" x2="612.371" y2="-56.2572" gradientUnits="userSpaceOnUse">
<stop stop-color="#E87347"/>
<stop offset="0.534375" stop-color="#457FD2"/>
<stop offset="1" stop-color="#3F3936"/>
</linearGradient>
</defs>
</svg>
